<svg width="64" height="64" viewBox="0 0 64 64" xmlns="http://www.w3.org/2000/svg" style="margin: 0 auto; display: block;">
  <!-- Shield base -->
  <defs>
    <linearGradient id="grad3" x1="0%" y1="0%" x2="100%" y2="100%">
      <stop offset="0%" style="stop-color:#2196F3;stop-opacity:1" />
      <stop offset="100%" style="stop-color:#64B5F6;stop-opacity:1" />
    </linearGradient>
  </defs>
  <path d="M32 4c15.5 0 28 8.2 28 18.3V59c0 1.7-1.3 3-3 3H7c-1.7 0-3-1.3-3-3V22.3C4 12.2 16.5 4 32 4z" fill="url(#grad3)" stroke="#1976D2" stroke-width="2" />
  <!-- Crossed lines -->
  <path d="M32 15V8M40.8 17.4l6.4-6.4M49 25H56M56 32v7M49 39l6.4 6.4M40.8 46.6l-6.4 6.4M32 49h-7M25 39l-6.4 6.4M15 32H8M8 25v-7M15 15l-6.4-6.4M23.2 7.4l6.4-6.4M32 15l-6.4-6.4" fill="none" stroke="#ffffff" stroke-width="2" />
</svg>
